<svg viewBox="0 0 621 400" xmlns="http://www.w3.org/2000/svg"><g><g><g><g><g><line x1="35.12800121307373" y1="373.2905433414163" x2="30.12800121307373" y2="373.2905433414163" style="visibility: inherit;" fill="rgb(0, 0, 0)" stroke="rgb(204, 204, 204)" stroke-width="1px"></line><line x1="35.12800121307373" y1="337.00372576499507" x2="30.12800121307373" y2="337.00372576499507" style="visibility: inherit;" fill="rgb(0, 0, 0)" stroke="rgb(204, 204, 204)" stroke-width="1px"></line><line x1="35.12800121307373" y1="300.7169081885739" x2="30.12800121307373" y2="300.7169081885739" style="visibility: inherit;" fill="rgb(0, 0, 0)" stroke="rgb(204, 204, 204)" stroke-width="1px"></line><line x1="35.12800121307373" y1="264.43009061215264" x2="30.12800121307373" y2="264.43009061215264" style="visibility: inherit;" fill="rgb(0, 0, 0)" stroke="rgb(204, 204, 204)" stroke-width="1px"></line><line x1="35.12800121307373" y1="228.14327303573145" x2="30.12800121307373" y2="228.14327303573145" style="visibility: inherit;" fill="rgb(0, 0, 0)" stroke="rgb(204, 204, 204)" stroke-width="1px"></line><line x1="35.12800121307373" y1="191.85645545931024" x2="30.12800121307373" y2="191.85645545931024" style="visibility: inherit;" fill="rgb(0, 0, 0)" stroke="rgb(204, 204, 204)" stroke-width="1px"></line><line x1="35.12800121307373" y1="155.569637882889" x2="30.12800121307373" y2="155.569637882889" style="visibility: inherit;" fill="rgb(0, 0, 0)" stroke="rgb(204, 204, 204)" stroke-width="1px"></line><line x1="35.12800121307373" y1="119.28282030646778" x2="30.12800121307373" y2="119.28282030646778" style="visibility: inherit;" fill="rgb(0, 0, 0)" stroke="rgb(204, 204, 204)" stroke-width="1px"></line><line x1="35.12800121307373" y1="82.9960027300466" x2="30.12800121307373" y2="82.9960027300466" style="visibility: inherit;" fill="rgb(0, 0, 0)" stroke="rgb(204, 204, 204)" stroke-width="1px"></line><line x1="35.12800121307373" y1="46.709185153625356" x2="30.12800121307373" y2="46.709185153625356" style="visibility: inherit;" fill="rgb(0, 0, 0)" stroke="rgb(204, 204, 204)" stroke-width="1px"></line><line x1="35.12800121307373" y1="10.42236757720417" x2="30.12800121307373" y2="10.42236757720417" style="visibility: inherit;" fill="rgb(0, 0, 0)" stroke="rgb(204, 204, 204)" stroke-width="1px"></line></g><g transform="translate(25.12800121307373, 0)"><text style="text-anchor: end; visibility: hidden; font-family: &quot;Helvetica Neue&quot;, sans-serif; font-size: 12px; font-weight: 200;" x="0" y="373.2905433414163" dx="0em" dy="0.3em" fill="rgb(50, 49, 63)" stroke="none" stroke-width="1px">0</text><text style="text-anchor: end; visibility: inherit; font-family: &quot;Helvetica Neue&quot;, sans-serif; font-size: 12px; font-weight: 200;" x="0" y="337.00372576499507" dx="0em" dy="0.3em" fill="rgb(50, 49, 63)" stroke="none" stroke-width="1px">20</text><text style="text-anchor: end; visibility: inherit; font-family: &quot;Helvetica Neue&quot;, sans-serif; font-size: 12px; font-weight: 200;" x="0" y="300.7169081885739" dx="0em" dy="0.3em" fill="rgb(50, 49, 63)" stroke="none" stroke-width="1px">40</text><text style="text-anchor: end; visibility: inherit; font-family: &quot;Helvetica Neue&quot;, sans-serif; font-size: 12px; font-weight: 200;" x="0" y="264.43009061215264" dx="0em" dy="0.3em" fill="rgb(50, 49, 63)" stroke="none" stroke-width="1px">60</text><text style="text-anchor: end; visibility: inherit; font-family: &quot;Helvetica Neue&quot;, sans-serif; font-size: 12px; font-weight: 200;" x="0" y="228.14327303573145" dx="0em" dy="0.3em" fill="rgb(50, 49, 63)" stroke="none" stroke-width="1px">80</text><text style="text-anchor: end; visibility: inherit; font-family: &quot;Helvetica Neue&quot;, sans-serif; font-size: 12px; font-weight: 200;" x="0" y="191.85645545931024" dx="0em" dy="0.3em" fill="rgb(50, 49, 63)" stroke="none" stroke-width="1px">100</text><text style="text-anchor: end; visibility: inherit; font-family: &quot;Helvetica Neue&quot;, sans-serif; font-size: 12px; font-weight: 200;" x="0" y="155.569637882889" dx="0em" dy="0.3em" fill="rgb(50, 49, 63)" stroke="none" stroke-width="1px">120</text><text style="text-anchor: end; visibility: inherit; font-family: &quot;Helvetica Neue&quot;, sans-serif; font-size: 12px; font-weight: 200;" x="0" y="119.28282030646778" dx="0em" dy="0.3em" fill="rgb(50, 49, 63)" stroke="none" stroke-width="1px">140</text><text style="text-anchor: end; visibility: inherit; font-family: &quot;Helvetica Neue&quot;, sans-serif; font-size: 12px; font-weight: 200;" x="0" y="82.9960027300466" dx="0em" dy="0.3em" fill="rgb(50, 49, 63)" stroke="none" stroke-width="1px">160</text><text style="text-anchor: end; visibility: inherit; font-family: &quot;Helvetica Neue&quot;, sans-serif; font-size: 12px; font-weight: 200;" x="0" y="46.709185153625356" dx="0em" dy="0.3em" fill="rgb(50, 49, 63)" stroke="none" stroke-width="1px">180</text><text style="text-anchor: end; visibility: inherit; font-family: &quot;Helvetica Neue&quot;, sans-serif; font-size: 12px; font-weight: 200;" x="0" y="10.42236757720417" dx="0em" dy="0.3em" fill="rgb(50, 49, 63)" stroke="none" stroke-width="1px">200</text></g><line x1="35.12800121307373" y1="0" x2="35.12800121307373" y2="374.8999996185303" fill="rgb(0, 0, 0)" stroke="rgb(204, 204, 204)" stroke-width="1px"></line></g></g><g transform="translate(35, 0)" clip-path="url(#clip_0)"><clipPath id="clip_0"><rect width="585" height="374"></rect></clipPath><g><g><g><line x1="9.547373925036112" y1="0" x2="9.547373925036112" y2="374.8999996185303" fill="rgb(0, 0, 0)" stroke="rgb(60, 60, 60)" stroke-width="1px" opacity="0.25"></line><line x1="67.13156051039981" y1="0" x2="67.13156051039981" y2="374.8999996185303" fill="rgb(0, 0, 0)" stroke="rgb(60, 60, 60)" stroke-width="1px" opacity="0.25"></line><line x1="124.7157470957635" y1="0" x2="124.7157470957635" y2="374.8999996185303" fill="rgb(0, 0, 0)" stroke="rgb(60, 60, 60)" stroke-width="1px" opacity="0.25"></line><line x1="182.2999336811272" y1="0" x2="182.2999336811272" y2="374.8999996185303" fill="rgb(0, 0, 0)" stroke="rgb(60, 60, 60)" stroke-width="1px" opacity="0.25"></line><line x1="239.88412026649087" y1="0" x2="239.88412026649087" y2="374.8999996185303" fill="rgb(0, 0, 0)" stroke="rgb(60, 60, 60)" stroke-width="1px" opacity="0.25"></line><line x1="297.46830685185455" y1="0" x2="297.46830685185455" y2="374.8999996185303" fill="rgb(0, 0, 0)" stroke="rgb(60, 60, 60)" stroke-width="1px" opacity="0.25"></line><line x1="355.0524934372183" y1="0" x2="355.0524934372183" y2="374.8999996185303" fill="rgb(0, 0, 0)" stroke="rgb(60, 60, 60)" stroke-width="1px" opacity="0.25"></line><line x1="412.63668002258197" y1="0" x2="412.63668002258197" y2="374.8999996185303" fill="rgb(0, 0, 0)" stroke="rgb(60, 60, 60)" stroke-width="1px" opacity="0.25"></line><line x1="470.2208666079456" y1="0" x2="470.2208666079456" y2="374.8999996185303" fill="rgb(0, 0, 0)" stroke="rgb(60, 60, 60)" stroke-width="1px" opacity="0.25"></line><line x1="527.8050531933093" y1="0" x2="527.8050531933093" y2="374.8999996185303" fill="rgb(0, 0, 0)" stroke="rgb(60, 60, 60)" stroke-width="1px" opacity="0.25"></line><line x1="585.3892397786731" y1="0" x2="585.3892397786731" y2="374.8999996185303" fill="rgb(0, 0, 0)" stroke="rgb(60, 60, 60)" stroke-width="1px" opacity="0.25"></line></g><g><line x1="0" y1="373.2905433414163" x2="585.8719987869263" y2="373.2905433414163" fill="rgb(0, 0, 0)" stroke="rgb(60, 60, 60)" stroke-width="1px" opacity="0.25"></line><line x1="0" y1="337.00372576499507" x2="585.8719987869263" y2="337.00372576499507" fill="rgb(0, 0, 0)" stroke="rgb(60, 60, 60)" stroke-width="1px" opacity="0.25"></line><line x1="0" y1="300.7169081885739" x2="585.8719987869263" y2="300.7169081885739" fill="rgb(0, 0, 0)" stroke="rgb(60, 60, 60)" stroke-width="1px" opacity="0.25"></line><line x1="0" y1="264.43009061215264" x2="585.8719987869263" y2="264.43009061215264" fill="rgb(0, 0, 0)" stroke="rgb(60, 60, 60)" stroke-width="1px" opacity="0.25"></line><line x1="0" y1="228.14327303573145" x2="585.8719987869263" y2="228.14327303573145" fill="rgb(0, 0, 0)" stroke="rgb(60, 60, 60)" stroke-width="1px" opacity="0.25"></line><line x1="0" y1="191.85645545931024" x2="585.8719987869263" y2="191.85645545931024" fill="rgb(0, 0, 0)" stroke="rgb(60, 60, 60)" stroke-width="1px" opacity="0.25"></line><line x1="0" y1="155.569637882889" x2="585.8719987869263" y2="155.569637882889" fill="rgb(0, 0, 0)" stroke="rgb(60, 60, 60)" stroke-width="1px" opacity="0.25"></line><line x1="0" y1="119.28282030646778" x2="585.8719987869263" y2="119.28282030646778" fill="rgb(0, 0, 0)" stroke="rgb(60, 60, 60)" stroke-width="1px" opacity="0.25"></line><line x1="0" y1="82.9960027300466" x2="585.8719987869263" y2="82.9960027300466" fill="rgb(0, 0, 0)" stroke="rgb(60, 60, 60)" stroke-width="1px" opacity="0.25"></line><line x1="0" y1="46.709185153625356" x2="585.8719987869263" y2="46.709185153625356" fill="rgb(0, 0, 0)" stroke="rgb(60, 60, 60)" stroke-width="1px" opacity="0.25"></line><line x1="0" y1="10.42236757720417" x2="585.8719987869263" y2="10.42236757720417" fill="rgb(0, 0, 0)" stroke="rgb(60, 60, 60)" stroke-width="1px" opacity="0.25"></line></g></g></g><g><g><line x1="0" y1="373.2905433414163" x2="585.8719987869263" y2="373.2905433414163" fill="rgb(0, 0, 0)" stroke="rgb(153, 153, 153)" stroke-width="1.5px"></line></g></g><g><g><line x1="9.547373925036112" y1="0" x2="9.547373925036112" y2="374.8999996185303" fill="rgb(0, 0, 0)" stroke="rgb(153, 153, 153)" stroke-width="1.5px"></line></g></g><g><g><g><g><g><path style="fill: none;" stroke="rgb(51, 187, 238)" stroke-width="2px" d="M9.547373925036112,334.68754533065663L10.699057656743387,331.81529804288215L13.002425120157934,334.08462497030837L14.154108851865207,336.37004456468645L17.60916004698703,335.64029992813636L18.760843778694305,334.1362152319373L22.215894973816123,334.3630985523431L23.3675787055234,333.4243007845314L26.82262990064522,334.5714122394951L30.277681095767043,333.5589351324433L36.036099754303414,331.7441079237976L37.18778348601069,331.484527728364L38.33946721771796,330.5047679868152L39.491150949425226,331.492378197947L40.642834681132506,331.3339804662028L41.79451841283978,333.88720117814717L42.94620214454706,333.8716585063801L47.55293707137615,334.8283637950307L48.70462080308342,334.08571649645336L49.8563045347907,334.3264568319828L52.15967199820524,334.1352103341716L59.069774388448884,335.28263160905533L62.52482558357071,332.7848902240307L63.67650931527798,330.8437334848335L64.82819304698525,330.5430191040474L69.43492797381435,330.3625910227381L70.58661170552162,326.1885812756182L74.04166290064344,324.294040806875L76.345030364058,324.79431645481935L78.64839782747254,326.0493986987135L80.95176529088708,325.33136039847284L83.25513275430164,326.37162487023073L89.01355141283801,324.4038680331046L93.6202863396671,323.79919442587857L94.77197007137437,324.4974084538945L95.92365380308165,323.2793382647034L97.07533753478893,321.938633884559L102.83375619332529,322.3200539554921L105.13712365673983,323.09375364950745L107.44049112015439,323.0131258129371L110.89554231527622,324.9806840376963L115.5022772421053,324.6901316969664L116.65396097381257,322.1382859113652L117.80564470551985,321.2540024807L118.95732843722712,319.38935783952945L121.26069590064168,318.2705710549512L122.41237963234894,318.2865495268935L124.7157470957635,318.2961366100585L130.47416575429986,318.3018888599574L131.62584948600713,320.13800693932967L135.08090068112895,321.78452543809425L136.23258441283625,318.9760827287215L137.3842681445435,314.7827107710728L140.83931933966534,313.99463300441676L141.9910030713726,315.7209866965733L144.29437053478716,314.5575985597174L151.20447292503079,312.1316202696771L152.35615665673805,310.6760332956533L153.50784038844535,311.53062651916593L154.6595241201526,310.31543704534675L155.81120785185988,310.4800888954743L156.96289158356717,307.69133279885114L158.11457531527444,309.73980622108456L162.72131024210353,306.13064700808025L163.87299397381082,306.11548151326804L165.0246777055181,305.0725683695274L166.17636143722538,309.6804973730197L170.78309636405444,303.5707619479391L174.23814755917627,299.90492069289076L175.38983129088354,297.7054159398618L176.5415150225908,297.7004513306444L177.6931987542981,297.697472565114L178.84488248600536,301.0555768474883L179.99656621771263,306.53871357436606L183.45161741283445,304.20999142004916L184.60330114454175,303.9292743135961L185.754984876249,302.64432786358725L186.9066686079563,297.91479908286846L188.05835233966357,299.03564272515064L189.21003607137084,294.1787280346979L192.66508726649263,296.7940000962483L198.42350592502902,292.83374245735644L200.72687338844355,288.72964523455914L204.18192458356538,289.5659895054516L205.33360831527267,291.50205722739827L213.3953944372236,275.8350300834202L214.54707816893088,266.4348137970333L218.00212936405265,263.81858364426L219.15381309575994,251.7814917731227L221.45718055917447,255.02659042991363L222.60886429088177,246.50629584451485L224.91223175429633,236.74196370359707L227.21559921771086,218.78776040588232L235.2773853396618,199.95149872719145L237.58075280307634,188.64974171997693L246.79422265673452,158.8294375576755L250.24927385185634,140.93725506029463L252.5526413152709,130.20194556186613L253.70432504697817,106.48132239432954L254.85600877868544,109.52838596228708L258.3110599738073,159.2073731639389L259.4627437055145,199.48211926440337L260.6144274372218,213.1796131452087L261.7661111689291,221.39810947369187L262.91779490063635,216.17905307708088L265.2211623640509,206.45001402997264L266.3728460957582,200.61259060170767L267.5245298274654,189.04639684468665L268.6762135591727,172.0270115023255L269.82789729088,148.85579942708466L270.97958102258724,117.67363471346061L274.43463221770907,129.20335422358986L275.58631594941636,123.16160505984331L280.1930508762455,132.49613643141944L283.6481020713673,148.17652434251374L291.7098881933182,117.26606966271805L292.8615719250255,115.9992343233202L297.46830685185455,146.3421227777162L299.77167431526914,156.4841161502918L300.9233580469764,152.48964308568856L303.22672551039096,137.1333783771025L306.6817767055128,110.64018208347136L310.1368279006346,94.74426430729267L312.44019536404915,102.48615111006495L313.59187909575644,107.1312831917283L314.7435628274637,109.91836244072641L315.89524655917097,94.31117252164569L318.1986140225855,84.94685857019726L319.3502977542928,79.32827019932819L321.6536652177073,75.95711717680678L322.8053489494146,73.93442536329388L327.4120838762437,72.72081027518618L329.7154513396582,71.99264122232154L333.17050253478004,71.55573979060273L334.32218626648734,71.29359893157152L335.4738699981946,71.1363144161528L338.9289211933164,71.04194370690158L341.232288656731,46.79411325502258L342.3839723884382,56.4366230102234L343.5356561201455,62.222128863343926L348.14239104697464,65.69343237521622L349.2940747786819,67.77621448233953L350.44575851038917,86.30532121509304L353.900809705511,97.42278525474524L357.3558609006328,86.81382621005696L364.26596329087647,128.83087790975824L366.569330754291,166.13671294274315L367.7210144859983,183.0222151585116L368.8726982177056,193.15351648797275L370.0243819494128,192.63469207650775L375.7828006079492,119.7497622767863L376.9344843396564,100.21001242328163L379.237851803071,105.76559997965836L380.38953553477825,91.81951504500489L382.69290299819284,100.73130155269234L386.14795419331466,88.79893598882518L387.2996379250219,81.63951665050502L388.4513216567292,77.34386504751285L389.6030053884365,92.04591155419706L390.7546891201437,83.58770198972809L391.906372851851,108.75179458935037L395.36142404697284,110.89066927929957L396.51310777868014,125.13357496309322L398.81647524209467,120.71973750354528L401.1198427055092,141.11068498578922L404.574893900631,143.26558438698703L409.18162882746014,131.5989431578816L410.33331255916744,107.31952095193884L412.63668002258197,92.75186762837319L413.78836375428926,101.29071310271331L416.0917312177038,106.41402038731735L417.2434149494111,122.44758562790392L421.8501498762401,162.30673757363056L423.0018336079474,186.22222874106654L424.1535173396547,212.66713299162114L429.91193599819104,204.3428619786968L431.06361972989833,191.28455967088013L432.2153034616056,191.51331798625216L433.36698719331287,191.6505729754754L435.6703546567274,173.5895171807987L436.8220383884347,162.75288370399275L437.973722120142,156.25090361790913L440.2770895835565,122.11069722795537L441.4287733152638,77.43536536765487L442.58045704697105,74.8213742778027L444.88382451038564,90.53241709237102L446.0355082420929,99.95904278111198L447.18719197380017,88.33558072587698L449.4905594372147,98.64094096121562L451.7939269006293,104.82415710241872L455.2489780957511,67.06344129233293L456.40066182745835,44.40701180628139L459.8557130225802,72.28379960945819L464.4624479494093,89.00987229136433L465.6141316811166,112.00509677033205L466.7658154128238,125.80223145771271L469.06918287623836,144.16018135828972L470.2208666079456,132.1357013406632L471.3725503396529,137.88059419991137L473.6759178030674,141.32752991546036L474.8276015347747,153.4753604329383L475.979285266482,160.76405874342504L477.13096899818925,165.13727772971708L478.28265272989654,175.82494882155436L481.73770392501837,182.2375514766567L485.1927551201402,178.0213733696561L486.3444388518475,183.55540620551776L488.647806315262,168.73241711882415L489.7994900469693,169.91829275495655L492.10285751038384,160.5501490484874L494.4062249737984,124.69024448630228L496.70959243721296,133.41332008729486L503.6196948274566,125.68758457806626L505.92306229087114,134.01172414235322L508.2264297542857,139.00620788092542L512.8331646811148,142.00289812406874L516.2882158762366,153.88058135810329L517.4398996079439,150.92752221037549L519.7432670713584,167.2990955099494L520.8949508030656,158.97863070148313L522.0466345347729,153.98635181640338L523.1983182664802,150.9909844853555L524.3500019981875,136.2341832169027L527.8050531933093,127.38010245583092L528.9567369250166,122.06765399918794L530.1084206567239,118.88018492520206L532.4117881201385,99.6882660123311L533.5634718518457,88.17311466460842L534.7151555835529,98.54346132445448L537.0185230469675,87.48623185188256L539.3218905103821,56.66068614201123L546.2319929006258,38.165358716088406L549.6870440957475,68.53880775534236L551.9904115591621,109.80212713686751L554.2937790225767,142.62385846584462L557.7488302176985,162.31689726323089L561.2038814128204,155.98931175345203L562.3555651445275,152.1927604475847L563.5072488762348,149.9148296640643L564.6589326079421,148.5480711939521L566.9623000713566,134.76843524206058L571.5690349981858,109.22121620244616L572.720718729893,93.89288477867757L573.8724024616002,84.69588592441636L576.1757699250148,79.17768661185966L579.6308211201366,75.86676702432567L580.7825048518439,49.68900724547706L581.9341885835512,58.173559404496075L583.0858723152585,39.073082673579336L584.2375560469658,27.61279663502927L587.6926072420875,20.736625011899264" fill="none"></path></g><g><path style="fill: none;" stroke="rgb(204, 51, 17)" stroke-width="2px" d="M9.547373925036112,332.0555246266033L10.699057656743387,332.0555246266033L11.850741388450661,331.93530476298525L13.002425120157934,333.4787663228405L14.154108851865207,332.7592691728888L15.305792583572483,332.94192878907705L16.457476315279756,332.7678183096741L17.60916004698703,332.28520761422413L18.760843778694305,331.0816039996534L19.912527510401574,331.47354215055475L21.06421124210885,330.05177571190615L22.215894973816123,327.45844965982974L23.3675787055234,325.2000728527023L24.519262437230672,325.211465742122L25.670946168937945,320.04616899562245L26.82262990064522,316.53142808399457L27.974313632352494,316.19576879731846L29.125997364059767,315.04227810227997L30.277681095767043,313.94701831596643L31.429364827474313,314.64520527922747L32.58104855918159,313.29181171187054L33.73273229088886,315.464675982629L34.884416022596135,313.5696172919924L36.036099754303414,313.0634861722735L37.18778348601069,308.9703600774541L38.33946721771796,303.4839566071577L39.491150949425226,296.84770957176715L40.642834681132506,279.83556504142354L41.79451841283978,256.73951671185245L42.94620214454706,220.41862280753122L44.09788587625433,184.80254311764284L45.2495696079616,148.54598882161628L46.40125333966888,141.6789671224519L47.55293707137615,153.68622310115526L48.70462080308342,153.55990942451095L49.8563045347907,165.05886090907018L51.00798826649797,175.7778987955026L52.15967199820524,178.38965442275807L53.31135572991252,159.58516676915596L54.46303946161979,133.4155658630782L55.614723193327066,132.6007136745893L56.76640692503434,148.2392706959414L57.91809065674161,161.86647755725807L59.069774388448884,158.4680620997553L60.221458120156164,140.7204297836977L61.37314185186344,107.53345995495857L62.52482558357071,75.60079356051051L63.67650931527798,56.44119372460648L64.82819304698525,51.22887368385864L65.97987677869253,48.101481659454805L67.13156051039981,46.22504644482876L68.28324424210709,38.81574545560596L69.43492797381435,46.3906493601865L70.58661170552162,45.19854706527565L71.7382954372289,50.22033032597818L72.88997916893618,63.33059928761054L74.04166290064344,75.66282540913596L75.19334663235072,68.4988973322902L76.345030364058,74.29773949139332L77.49671409576527,77.77704478685479L78.64839782747254,57.7469444608426L79.80008155917982,52.012324125670546L80.95176529088708,42.28811206413246L82.10344902259436,42.737024687644464L83.25513275430164,48.74341689939638L84.4068164860089,57.60620519684767L85.55850021771619,67.76212421012724L86.71018394942347,73.855675618095L87.86186768113073,72.67356042806688L89.01355141283801,60.968293706005056L90.16523514454528,59.68217831041272L91.31691887625254,53.17346443541254L92.46860260795982,42.984796249977876L93.6202863396671,43.15503519915171L94.77197007137437,36.97373870822133L95.92365380308165,33.26496081366315L97.07533753478893,48.319131545407686L98.2270212664962,52.09268101405428L99.37870499820347,68.92007444499939L100.53038872991075,79.01651050356651L101.682072461618,89.20962752611979L102.83375619332529,91.19024235223873L103.98543992503257,77.8153474981529L105.13712365673983,64.05336594805675L106.28880738844711,55.79617701799896L107.44049112015439,56.578908297609075L108.59217485186166,67.14574607058415L109.74385858356894,82.08716886633033L110.89554231527622,91.0520225437781L112.04722604698348,96.4309347502467L113.19890977869076,86.21871590735788L114.35059351039803,69.09538699357967L115.5022772421053,52.537949784878094L116.65396097381257,42.603487459657174L117.80564470551985,36.642810064524554L118.95732843722712,33.066403627445084L120.1090121689344,30.92055976519731L121.26069590064168,29.63305344784868L122.41237963234894,28.86054965743955L123.56406336405622,34.68048724362876L124.7157470957635,43.90949443298689L125.86743082747076,59.544097751810796L127.01911455917804,68.92485974310512L128.1707982908853,86.99450837155246L129.3224820225926,93.99642624691137L130.47416575429986,89.5962568401655L131.62584948600713,91.42221994066608L132.77753321771442,88.0517330564183L133.9292169494217,90.49550567041786L135.08090068112895,71.66146085141565L136.23258441283625,71.3570315680592L137.3842681445435,60.178376390000494L138.53595187625078,59.20822792081003L139.68763560795804,58.62613883929566L140.83931933966534,58.276885390387065L141.9910030713726,52.33028868339727L143.14268680307987,42.478890798768646L144.29437053478716,36.568052067991516L145.44605426649443,33.021548829525216L146.5977379982017,30.89364688644548L147.74942172990896,35.90034558103224L148.90110546161623,38.9043647977843L150.05278919332352,40.70677632783554L151.20447292503079,41.78822324586628L152.35615665673805,36.153651536250095L153.50784038844535,32.77290851048036L154.6595241201526,30.744462695018512L155.81120785185988,29.527395205741414L156.96289158356717,28.7971547121752L158.11457531527444,28.35901041603546L159.2662590469817,28.09612383835156L160.417942778689,27.938391891741276L161.56962651039626,27.843752723775083L162.72131024210353,20.87519866514674L163.87299397381082,23.60583678781836L165.0246777055181,25.24421966142131L166.17636143722538,32.51068924601782L167.32804516893265,47.866568604820486L168.47972890063988,70.5196623868722L169.63141263234715,91.52645209548865L170.78309636405444,104.13052592065856L171.9347800957617,115.029689709791L173.08646382746898,130.3659893918638L174.23814755917627,144.59451444514042L175.38983129088354,150.69218039352117L176.5415150225908,154.3507799625496L177.6931987542981,156.54593970396664L178.84488248600536,143.14221848574533L179.99656621771263,123.54979692801399L181.14824994941992,102.49003321401824L182.2999336811272,78.85817737757594L183.45161741283445,58.39562401527587L184.60330114454175,46.118091997895874L185.754984876249,38.75157278746781L186.9066686079563,40.615101121645694L188.05835233966357,35.44977826171777L189.21003607137084,38.634024406195635L190.36171980307813,46.28161673052705L191.5134035347854,45.133127487481204L192.66508726649263,55.440031549698574L193.8167709981999,56.365221016628766L194.9684547299072,56.92033469678694L196.12013846161446,51.51635826723714L197.27182219332173,41.99053254907261L198.42350592502902,36.275037118173884L199.57518965673628,32.84573985963465L200.72687338844355,30.788161504511095L201.87855712015084,29.553614491436974L203.0302408518581,28.812886283592434L204.18192458356538,34.651889219320424L205.33360831527267,53.98953462361089L206.48529204697994,74.19344199814645L207.63697577868723,90.15565772457722L208.7886595103945,103.30804929811165L209.94034324210176,114.53620373626296L211.09202697380906,117.9363769051231L212.24371070551632,112.56154736705378L213.3953944372236,95.8970834774421L214.54707816893088,85.89840514367512L215.69876190063815,74.6402451730147L216.85044563234538,62.1483045529738L218.00212936405265,54.653140180949265L219.15381309575994,50.15604155773451L220.3054968274672,41.174342523371024L221.45718055917447,35.785323102752955L222.60886429088177,32.551911450382136L223.76054802258903,30.611864458959587L224.91223175429633,29.447836264106115L226.0639154860036,28.749419347193964L227.21559921771086,34.61380905748132L228.36728294941815,38.132442883653766L229.51896668112542,40.24362317935726L230.67065041283269,52.506328964824206L231.82233414453998,64.70219847091317L232.97401787624725,67.18147413975771L234.1257016079545,63.41008657066436L235.2773853396618,61.14725402920823L236.42906907136907,54.052509866689945L237.58075280307634,43.512223508744285L238.73243653478363,37.18805169397683L239.88412026649087,33.39354860511645L241.03580399819813,24.205076193951527L242.1874877299054,31.88720316553588L243.3391714616127,36.4964793484865L244.49085519331996,44.9990896959016L245.64253892502725,64.66391965410776L246.79422265673452,80.59807301644452L247.94590638844178,90.15856503384657L249.09759012014908,91.75960485687477L250.24927385185634,83.41591797133475L251.4009575835636,61.130268371531145L252.5526413152709,47.75887861164904L253.70432504697817,39.73604475571966L254.85600877868544,46.9428289402415L256.0076925103927,61.364098456163504L257.1593762421,65.17861413090793L258.3110599738073,76.77163431511161L259.4627437055145,83.72744642563379L260.6144274372218,92.03618907936016L261.7661111689291,97.02143467159601L262.91779490063635,95.87732663952443L264.0694786323436,99.32611720769455L265.2211623640509,92.79407141663535L266.3728460957582,88.87484394199987L267.5245298274654,86.52330745721855L268.6762135591727,80.27413953154104L269.82789729088,65.52864116808956L270.97958102258724,56.681342150018736L272.13126475429453,51.37296273917616L273.2829484860018,41.904495232236L274.43463221770907,36.22341472807193L275.58631594941636,32.81476642557351L276.73799968112365,30.769577444074457L277.8896834128309,22.630693497326376L279.0413671445382,17.747363129277517L280.1930508762455,14.817364908448155L281.3447346079527,13.059365975950584L282.49641833966,12.004566616452053L283.6481020713673,18.283457558601526L284.79978580307454,22.050792123891256L285.95146953478184,30.59463272349973L287.10315326648913,35.72093708326486L288.25483699819637,49.79271730716874L289.40652072990366,63.07403147631993L290.5582044616109,71.04281997781055L291.7098881933182,80.29015782325314L292.8615719250255,89.9738159179318L294.0132556567327,99.62388207644841L295.16493938844,101.57405046984894L296.3166231201473,94.142831373928L297.46830685185455,79.58690091116648L298.61999058356184,65.11629799586484L299.77167431526914,50.150496386249245L300.9233580469764,41.17101542047982L302.07504177868367,35.78332684101821L303.22672551039096,38.83415355377588L304.3784092420982,40.664649581430524L305.5300929738055,47.49999183566797L306.6817767055128,45.86415255056579L307.83346043722,44.88264897950444L308.9851441689273,44.293746836867626L310.1368279006346,49.677450188930266L311.28851163234185,47.17062756252312L312.44019536404915,45.66653398667887L313.59187909575644,50.50112247881697L314.7435628274637,53.40187557409985L315.89524655917097,43.12184293319024L317.04693029087827,36.95382334864445L318.1986140225855,33.25301159791701L319.3502977542928,31.032524547480534L320.5019814860001,29.70023231721865L321.6536652177073,35.18429683949614L322.8053489494146,38.47473555286268L323.95703268112186,40.44899878088256L325.1087164128291,41.633556717694546L326.2604001445364,36.060851619347034L327.4120838762437,32.717228560338526L328.5637676079509,30.711054724933433L329.7154513396582,29.507350423690298L330.8671350713655,28.78512784294452L332.01881880307275,28.351794294496983L333.17050253478004,28.091794165428553L334.32218626648734,50.05347759127574L335.4738699981946,53.13328864157512L336.62555372990187,54.98117527175475L337.77723746160916,61.34886022026268L338.9289211933164,59.9105182189673L340.0806049250237,59.047513018190045L341.232288656731,58.529709897723706L342.3839723884382,52.48198338779923L343.5356561201455,42.56990762140987L344.6873398518528,36.622662161576216L345.83902358356005,33.054314885676035L346.99070731526734,30.91330652013596L348.14239104697464,22.716930942963245L349.2940747786819,24.71087615450824L350.44575851038917,25.90724328143523L351.59744224209646,26.62506355759149L352.7491259738037,27.055755723285188L353.900809705511,27.31417102270143L355.0524934372183,27.469220202351153L356.2041771689255,27.56224971014103L357.3558609006328,27.618067414814902L358.5075446323401,27.65155803761928L359.65922836404735,27.671652411301864L360.81091209575465,20.771938477662843L361.96259582746194,23.543880675328012L363.1142795591692,25.207045993927068L364.26596329087647,26.204945185086558L365.41764702258376,33.08712456021692L366.569330754291,42.95347682293982L367.7210144859983,48.87328818057364L368.8726982177056,62.52237400036279L370.0243819494128,70.7118254922363L371.1760656811201,70.78725035255161L372.32774941282736,65.57355229834064L373.4794331445346,56.70828882816943L374.6311168762419,45.10569088563199L375.7828006079492,38.144132120109475L376.9344843396564,33.96719686079604L378.0861680713637,24.549265147359336L379.237851803071,18.89850611929728L380.38953553477825,22.41982126030865L381.54121926648554,24.532610344915497L382.69290299819284,18.888513237831035L383.8445867299001,22.413825531428984L384.99627046160737,24.529012907587685L386.14795419331466,25.79812533328294L387.2996379250219,26.559592788700115L388.4513216567292,33.29991312238508L389.6030053884365,37.344105322595965L390.7546891201437,33.48718078228791L391.906372851851,37.456465918537674L393.0580565835583,39.83803700028756L394.20974031526555,41.266979649337486L395.36142404697284,42.12434523876749L396.51310777868014,42.638764592425446L397.6647915103874,53.94341381266514L398.81647524209467,60.72620334480888L399.96815897380196,64.79587706409518L401.1198427055092,76.54199207502393L402.2715264372165,83.5896610815812L403.4232101689238,83.35219774096731L404.574893900631,73.11252073139002L405.7265776323383,66.96871452564375L406.8782613640456,68.54138377259613L408.02994509575285,64.22603235036729L409.18162882746014,55.89977685938538L410.33331255916744,56.64106820244092L411.4849962908747,57.085843008274196L412.63668002258197,57.35270789177417L413.78836375428926,62.771779792274344L414.9400474859965,55.02722532452958L416.0917312177038,56.11753728152746L417.2434149494111,56.771724455726144L418.3950986811183,51.42719212260067L419.5467824128256,48.22047272272539L420.69846614453286,40.013001222365574L421.8501498762401,41.37195818258431L423.0018336079474,42.18733235871554L424.1535173396547,42.676556864394286L425.3052010713619,36.68665170736688L426.4568848030692,33.09270861315048L427.6085685347765,30.936342756620604L428.76025226648375,29.64252324270268L429.91193599819104,28.866231534351925L431.06361972989833,28.40045650934144L432.2153034616056,28.120991494335215L433.36698719331287,27.95331248533148L434.51867092502016,27.852705079929137L435.6703546567274,27.79234063668781L436.8220383884347,27.756121970743038L437.973722120142,27.734390771176095L439.1254058518492,20.80958149358736L440.2770895835565,23.566466484882767L441.4287733152638,25.22059747966L442.58045704697105,26.213076076526306L443.73214077867834,26.8085632346461L444.88382451038564,27.165855529518012L446.0355082420929,27.380230906441113L447.18719197380017,27.508856132594985L448.33887570550746,27.586031268287343L449.4905594372147,27.632336349702655L450.642243168922,27.6601193985519L451.7939269006293,27.676789227861434L452.9456106323365,27.686791125447144L454.0972943640438,27.692792263998626L455.2489780957511,27.69639294712954L456.40066182745835,27.698553357008052L457.55234555916564,27.699849602935103L458.70402929087294,20.78885679264272L459.8557130225802,16.642261106467345L461.00739675428747,14.154303694762064L462.15908048599476,19.573299805587567L463.310764217702,22.824697472082846L464.4624479494093,24.775536071980014L465.6141316811166,25.94603923191835L466.7658154128238,32.93178098831601L467.91749914453106,30.839786181719887L469.06918287623836,35.86802915819692L470.2208666079456,38.884974944083126L471.3725503396529,40.69514241561478L472.5242340713602,47.51828753617855L473.6759178030674,56.871127578917026L474.8276015347747,62.48283160456009L475.979285266482,65.8498540199459L477.13096899818925,56.87406986113251L478.28265272989654,51.48859936584449L479.43433646160383,41.97387720823701L480.5860201933111,36.26504391367246L481.73770392501837,32.839743936933814L482.88938765672566,23.872793393041945L484.0410713884329,25.404393624555496L485.1927551201402,26.323353763463615L486.3444388518475,26.874729846808464L487.4961225835547,27.20555549681535L488.647806315262,27.404050886819505L489.7994900469693,27.523148120822043L490.95117377867655,27.594606461223464L492.10285751038384,27.63748146546436L493.25454124209114,27.663206468008923L494.4062249737984,27.678641469535705L495.55790870550567,27.687902470451718L496.70959243721296,27.69345907100137L497.8612761689202,27.69679303133114L499.0129599006275,27.698793407529024L500.1646436323348,27.699993633247743L501.316327364042,20.788943210830382L502.4680110957493,16.642312957379943L503.6196948274566,21.06610536315827L504.77137855916385,23.7203808066252L505.92306229087114,18.401175514856845L507.07474602257844,22.121422897644493L508.2264297542857,24.353571327317013L509.37811348599297,25.692860385120525L510.52979721770026,26.496433819802633L511.6814809494075,26.97857788061191L512.8331646811148,27.267864317097406L513.9848484128221,27.441436178988795L515.1365321445294,27.54557929612355L516.2882158762366,27.6080651664044L517.4398996079439,27.64555668857298L518.5915833396512,27.66805160187414L519.7432670713584,33.964988410289436L520.8949508030656,37.74315049533868L522.0466345347729,33.726607885933504L523.1983182664802,31.316682320290397L524.3500019981875,36.15416684133919L525.5016857298948,32.773217693533866L526.6533694616021,30.74464820485059L527.8050531933093,41.54799100972002L528.9567369250166,42.292952054997045L530.1084206567239,36.456488821728556L531.2601043884312,32.954610881767394L532.4117881201385,37.13692397822541L533.5634718518457,33.3628719756656L534.7151555835529,31.0984407741297L535.8668393152602,29.73978205320816L537.0185230469675,35.20802668108985L538.1702067786748,38.48897345781893L539.3218905103821,34.17410166342165L540.4735742420894,31.585178586783343L541.6252579737966,30.031824740800346L542.7769417055039,29.099812433210502L543.9286254372112,34.8240449090913L545.0803091689185,43.995629032264446L546.2319929006258,43.761534868523654L547.383676632333,43.62107837027912L548.5353603640402,37.25336461089785L549.6870440957475,33.432736355269014L550.8387278274548,31.140359401891715L551.9904115591621,29.764933229865335L553.1420952908694,28.939677526649575L554.2937790225767,28.444524104720074L555.4454627542839,28.147432051562305L556.5971464859912,27.969176819667723L557.7488302176985,20.95045312268229L558.9005139494058,16.73921890449111L560.0521976811131,21.124248931424972L561.2038814128204,23.755266947585312L562.3555651445275,25.33387775728147L563.5072488762348,32.564484103533914L564.6589326079421,30.61940805085061L565.8106163396493,35.7358022796754L566.9623000713566,32.52219895653553L568.1139838030639,36.87747682308628L569.2656675347712,39.49064354301669L570.4173512664785,41.058543574974976L571.5690349981858,41.99928359414997L572.720718729893,48.30077224329966L573.8724024616002,52.081665432789464L575.0240861933075,54.350201346483345L576.1757699250148,55.71132289469966L577.3274536567221,61.78694879402968L578.4791373884294,65.43232433362766L579.6308211201366,67.61954965738641L580.7825048518439,63.67293188124148L581.9341885835512,55.56791657790984L583.0858723152585,50.70490739591088L584.2375560469658,47.78710188671147" fill="none"></path></g></g></g></g><g opacity="0.2"><g><g><g><path style="fill: none;" stroke="rgb(51, 187, 238)" stroke-width="2px" d="M9.547373925036112,334.68754533065663L10.699057656743387,330.0919496702175L13.002425120157934,336.26317882063756L14.154108851865207,339.057698007675L17.60916004698703,334.68754533065663L18.760843778694305,332.0555246266033L22.215894973816123,334.68754533065663L23.3675787055234,332.0555246266033L26.82262990064522,336.26317882063756L30.277681095767043,332.0555246266033L36.036099754303414,329.0383274600403L37.18778348601069,331.09657005917404L38.33946721771796,329.0383274600403L39.491150949425226,332.97185868342854L40.642834681132506,331.09657005917404L41.79451841283978,337.7152315170021L42.94620214454706,333.8483510758673L47.55293707137615,336.26317882063756L48.70462080308342,332.97185868342854L49.8563045347907,334.68754533065663L52.15967199820524,333.8483510758673L59.069774388448884,337.00372576499507L62.52482558357071,329.0383274600403L63.67650931527798,327.9320213708898L64.82819304698525,330.0919496702175L69.43492797381435,330.0919496702175L70.58661170552162,319.9275773350853L74.04166290064344,321.4522330123261L76.345030364058,325.5447294659113L78.64839782747254,327.9320213708898L80.95176529088708,324.25430318622114L83.25513275430164,327.9320213708898L89.01355141283801,321.4522330123261L93.6202863396671,322.892184058351L94.77197007137437,325.5447294659113L95.92365380308165,321.4522330123261L97.07533753478893,319.9275773350853L102.83375619332529,322.892184058351L105.13712365673983,324.25430318622114L107.44049112015439,322.892184058351L110.89554231527622,327.9320213708898L115.5022772421053,324.25430318622114L116.65396097381257,318.31051723480545L117.80564470551985,319.9275773350853L118.95732843722712,316.59239087825813L121.26069590064168,316.59239087825813L122.41237963234894,318.31051723480545L124.7157470957635,318.31051723480545L130.47416575429986,318.31051723480545L131.62584948600713,322.892184058351L135.08090068112895,324.25430318622114L136.23258441283625,314.76341866468283L137.3842681445435,308.49265283461807L140.83931933966534,312.81251635443465L141.9910030713726,318.31051723480545L144.29437053478716,312.81251635443465L151.20447292503079,308.49265283461807L152.35615665673805,308.49265283461807L153.50784038844535,312.81251635443465L154.6595241201526,308.49265283461807L155.81120785185988,310.7270666706656L156.96289158356717,303.5081986539165L158.11457531527444,312.81251635443465L162.72131024210353,300.7169081885739L163.87299397381082,306.09273327104967L165.0246777055181,303.5081986539165L166.17636143722538,316.59239087825813L170.78309636405444,294.4061588103183L174.23814755917627,294.4061588103183L175.38983129088354,294.4061588103183L176.5415150225908,297.6930044168184L177.6931987542981,297.6930044168184L178.84488248600536,306.09273327104967L179.99656621771263,314.76341866468283L183.45161741283445,300.7169081885739L184.60330114454175,303.5081986539165L185.754984876249,300.7169081885739L186.9066686079563,290.82050591179035L188.05835233966357,300.7169081885739L189.21003607137084,286.8933559990187L192.66508726649263,300.7169081885739L198.42350592502902,286.8933559990187L200.72687338844355,282.5734994003633L204.18192458356538,290.82050591179035L205.33360831527267,294.4061588103183L213.3953944372236,252.33448936745305L214.54707816893088,252.33448936745305L218.00212936405265,259.8942384151L219.15381309575994,233.72585396641668L221.45718055917447,259.8942384151L222.60886429088177,233.72585396641668L224.91223175429633,222.09546549222046L227.21559921771086,191.85645545931024L235.2773853396618,171.69710620915518L237.58075280307634,171.69710620915518L246.79422265673452,114.09898131422341L250.24927385185634,114.09898131422341L252.5526413152709,114.09898131422341L253.70432504697817,70.9003876430246L254.85600877868544,114.09898131422341L258.3110599738073,233.72585396641668L259.4627437055145,259.8942384151L260.6144274372218,233.72585396641668L261.7661111689291,233.72585396641668L262.91779490063635,208.3504684821644L265.2211623640509,191.85645545931024L266.3728460957582,191.85645545931024L267.5245298274654,171.69710620915518L268.6762135591727,146.49793348878373L269.82789729088,114.09898131422341L270.97958102258724,70.9003876430246L274.43463221770907,146.49793348878373L275.58631594941636,114.09898131422341L280.1930508762455,146.49793348878373L283.6481020713673,171.69710620915518L291.7098881933182,70.9003876430246L292.8615719250255,114.09898131422341L297.46830685185455,191.85645545931024L299.77167431526914,171.69710620915518L300.9233580469764,146.49793348878373L303.22672551039096,114.09898131422341L306.6817767055128,70.9003876430246L310.1368279006346,70.9003876430246L312.44019536404915,114.09898131422341L313.59187909575644,114.09898131422341L314.7435628274637,114.09898131422341L315.89524655917097,70.9003876430246L318.1986140225855,70.9003876430246L319.3502977542928,70.9003876430246L321.6536652177073,70.9003876430246L322.8053489494146,70.9003876430246L327.4120838762437,70.9003876430246L329.7154513396582,70.9003876430246L333.17050253478004,70.9003876430246L334.32218626648734,70.9003876430246L335.4738699981946,70.9003876430246L338.9289211933164,70.9003876430246L341.232288656731,10.42236757720417L342.3839723884382,70.9003876430246L343.5356561201455,70.9003876430246L348.14239104697464,70.9003876430246L349.2940747786819,70.9003876430246L350.44575851038917,114.09898131422341L353.900809705511,114.09898131422341L357.3558609006328,70.9003876430246L364.26596329087647,191.85645545931024L366.569330754291,222.09546549222046L367.7210144859983,208.3504684821644L368.8726982177056,208.3504684821644L370.0243819494128,191.85645545931024L375.7828006079492,10.42236757720417L376.9344843396564,70.9003876430246L379.237851803071,114.09898131422341L380.38953553477825,70.9003876430246L382.69290299819284,114.09898131422341L386.14795419331466,70.9003876430246L387.2996379250219,70.9003876430246L388.4513216567292,70.9003876430246L389.6030053884365,114.09898131422341L390.7546891201437,70.9003876430246L391.906372851851,146.49793348878373L395.36142404697284,114.09898131422341L396.51310777868014,146.49793348878373L398.81647524209467,114.09898131422341L401.1198427055092,171.69710620915518L404.574893900631,146.49793348878373L409.18162882746014,114.09898131422341L410.33331255916744,70.9003876430246L412.63668002258197,70.9003876430246L413.78836375428926,114.09898131422341L416.0917312177038,114.09898131422341L417.2434149494111,146.49793348878373L421.8501498762401,222.09546549222046L423.0018336079474,222.09546549222046L424.1535173396547,252.33448936745305L429.91193599819104,191.85645545931024L431.06361972989833,171.69710620915518L432.2153034616056,191.85645545931024L433.36698719331287,191.85645545931024L435.6703546567274,146.49793348878373L436.8220383884347,146.49793348878373L437.973722120142,146.49793348878373L440.2770895835565,70.9003876430246L441.4287733152638,10.42236757720417L442.58045704697105,70.9003876430246L444.88382451038564,114.09898131422341L446.0355082420929,114.09898131422341L447.18719197380017,70.9003876430246L449.4905594372147,114.09898131422341L451.7939269006293,114.09898131422341L455.2489780957511,10.42236757720417L456.40066182745835,10.42236757720417L459.8557130225802,114.09898131422341L464.4624479494093,114.09898131422341L465.6141316811166,146.49793348878373L466.7658154128238,146.49793348878373L469.06918287623836,171.69710620915518L470.2208666079456,114.09898131422341L471.3725503396529,146.49793348878373L473.6759178030674,146.49793348878373L474.8276015347747,171.69710620915518L475.979285266482,171.69710620915518L477.13096899818925,171.69710620915518L478.28265272989654,191.85645545931024L481.73770392501837,191.85645545931024L485.1927551201402,171.69710620915518L486.3444388518475,191.85645545931024L488.647806315262,146.49793348878373L489.7994900469693,171.69710620915518L492.10285751038384,146.49793348878373L494.4062249737984,70.9003876430246L496.70959243721296,146.49793348878373L503.6196948274566,114.09898131422341L505.92306229087114,146.49793348878373L508.2264297542857,146.49793348878373L512.8331646811148,146.49793348878373L516.2882158762366,171.69710620915518L517.4398996079439,146.49793348878373L519.7432670713584,191.85645545931024L520.8949508030656,146.49793348878373L522.0466345347729,146.49793348878373L523.1983182664802,146.49793348878373L524.3500019981875,114.09898131422341L527.8050531933093,114.09898131422341L528.9567369250166,114.09898131422341L530.1084206567239,114.09898131422341L532.4117881201385,70.9003876430246L533.5634718518457,70.9003876430246L534.7151555835529,114.09898131422341L537.0185230469675,70.9003876430246L539.3218905103821,10.42236757720417L546.2319929006258,10.42236757720417L549.6870440957475,114.09898131422341L551.9904115591621,171.69710620915518L554.2937790225767,191.85645545931024L557.7488302176985,191.85645545931024L561.2038814128204,146.49793348878373L562.3555651445275,146.49793348878373L563.5072488762348,146.49793348878373L564.6589326079421,146.49793348878373L566.9623000713566,114.09898131422341L571.5690349981858,70.9003876430246L572.720718729893,70.9003876430246L573.8724024616002,70.9003876430246L576.1757699250148,70.9003876430246L579.6308211201366,70.9003876430246L580.7825048518439,10.42236757720417L581.9341885835512,70.9003876430246L583.0858723152585,10.42236757720417L584.2375560469658,10.42236757720417L587.6926072420875,10.42236757720417" fill="none"></path></g><g><path style="fill: none;" stroke="rgb(204, 51, 17)" stroke-width="2px" d="M9.547373925036112,332.0555246266033L10.699057656743387,332.0555246266033L11.850741388450661,331.81989369391187L13.002425120157934,335.29387711723024L14.154108851865207,331.81989369391187L15.305792583572483,333.1946127957272L16.457476315279756,332.51883753836023L17.60916004698703,331.58155658719545L18.760843778694305,329.30652245612765L19.912527510401574,332.0555246266033L21.06421124210885,327.9320213708898L22.215894973816123,323.58257334756934L23.3675787055234,321.81988163412376L24.519262437230672,325.2285327563953L25.670946168937945,312.3042954883007L26.82262990064522,311.2617955841548L27.974313632352494,315.6924219070652L29.125997364059767,313.3123349308848L30.277681095767043,312.3042954883007L31.429364827474313,315.6924219070652L32.58104855918159,311.2617955841548L33.73273229088886,318.72390088974237L34.884416022596135,310.7270666706656L36.036099754303414,312.3042954883007L37.18778348601069,302.8307000274134L38.33946721771796,295.2543747987179L39.491150949425226,286.8933559990187L40.642834681132506,254.31737436355718L41.79451841283978,222.09546549222046L42.94620214454706,165.9373020250554L44.09788587625433,131.3784353934898L45.2495696079616,94.16116459141705L46.40125333966888,131.3784353934898L47.55293707137615,171.69710620915518L48.70462080308342,153.37043891497294L49.8563045347907,182.30728783939642L51.00798826649797,191.85645545931024L52.15967199820524,182.30728783939642L53.31135572991252,131.3784353934898L54.46303946161979,94.16116459141705L55.614723193327066,131.3784353934898L56.76640692503434,171.69710620915518L57.91809065674161,182.30728783939642L59.069774388448884,153.37043891497294L60.221458120156164,114.09898131422341L61.37314185186344,57.75300521702417L62.52482558357071,27.701793971825794L63.67650931527798,27.701793971825794L64.82819304698525,43.41039362291241L65.97987677869253,43.41039362291241L67.13156051039981,43.41039362291241L68.28324424210709,27.701793971825794L69.43492797381435,57.75300521702417L70.58661170552162,43.41039362291241L71.7382954372289,57.75300521702417L72.88997916893618,82.9960027300466L74.04166290064344,94.16116459141705L75.19334663235072,57.75300521702417L76.345030364058,82.9960027300466L77.49671409576527,82.9960027300466L78.64839782747254,27.701793971825794L79.80008155917982,43.41039362291241L80.95176529088708,27.701793971825794L82.10344902259436,43.41039362291241L83.25513275430164,57.75300521702417L84.4068164860089,70.9003876430246L85.55850021771619,82.9960027300466L86.71018394942347,82.9960027300466L87.86186768113073,70.9003876430246L89.01355141283801,43.41039362291241L90.16523514454528,57.75300521702417L91.31691887625254,43.41039362291241L92.46860260795982,27.701793971825794L93.6202863396671,43.41039362291241L94.77197007137437,27.701793971825794L95.92365380308165,27.701793971825794L97.07533753478893,70.9003876430246L98.2270212664962,57.75300521702417L99.37870499820347,94.16116459141705L100.53038872991075,94.16116459141705L101.682072461618,104.49930305994968L102.83375619332529,94.16116459141705L103.98543992503257,57.75300521702417L105.13712365673983,43.41039362291241L106.28880738844711,43.41039362291241L107.44049112015439,57.75300521702417L108.59217485186166,82.9960027300466L109.74385858356894,104.49930305994968L110.89554231527622,104.49930305994968L112.04722604698348,104.49930305994968L113.19890977869076,70.9003876430246L114.35059351039803,43.41039362291241L115.5022772421053,27.701793971825794L116.65396097381257,27.701793971825794L117.80564470551985,27.701793971825794L118.95732843722712,27.701793971825794L120.1090121689344,27.701793971825794L121.26069590064168,27.701793971825794L122.41237963234894,27.701793971825794L123.56406336405622,43.41039362291241L124.7157470957635,57.75300521702417L125.86743082747076,82.9960027300466L127.01911455917804,82.9960027300466L128.1707982908853,114.09898131422341L129.3224820225926,104.49930305994968L130.47416575429986,82.9960027300466L131.62584948600713,94.16116459141705L132.77753321771442,82.9960027300466L133.9292169494217,94.16116459141705L135.08090068112895,43.41039362291241L136.23258441283625,70.9003876430246L137.3842681445435,43.41039362291241L138.53595187625078,57.75300521702417L139.68763560795804,57.75300521702417L140.83931933966534,57.75300521702417L141.9910030713726,43.41039362291241L143.14268680307987,27.701793971825794L144.29437053478716,27.701793971825794L145.44605426649443,27.701793971825794L146.5977379982017,27.701793971825794L147.74942172990896,43.41039362291241L148.90110546161623,43.41039362291241L150.05278919332352,43.41039362291241L151.20447292503079,43.41039362291241L152.35615665673805,27.701793971825794L153.50784038844535,27.701793971825794L154.6595241201526,27.701793971825794L155.81120785185988,27.701793971825794L156.96289158356717,27.701793971825794L158.11457531527444,27.701793971825794L159.2662590469817,27.701793971825794L160.417942778689,27.701793971825794L161.56962651039626,27.701793971825794L162.72131024210353,10.42236757720417L163.87299397381082,27.701793971825794L165.0246777055181,27.701793971825794L166.17636143722538,43.41039362291241L167.32804516893265,70.9003876430246L168.47972890063988,104.49930305994968L169.63141263234715,123.03663665841339L170.78309636405444,123.03663665841339L171.9347800957617,131.3784353934898L173.08646382746898,153.37043891497294L174.23814755917627,165.9373020250554L175.38983129088354,159.8386793160922L176.5415150225908,159.8386793160922L177.6931987542981,159.8386793160922L178.84488248600536,123.03663665841339L179.99656621771263,94.16116459141705L181.14824994941992,70.9003876430246L182.2999336811272,43.41039362291241L183.45161741283445,27.701793971825794L184.60330114454175,27.701793971825794L185.754984876249,27.701793971825794L186.9066686079563,43.41039362291241L188.05835233966357,27.701793971825794L189.21003607137084,43.41039362291241L190.36171980307813,57.75300521702417L191.5134035347854,43.41039362291241L192.66508726649263,70.9003876430246L193.8167709981999,57.75300521702417L194.9684547299072,57.75300521702417L196.12013846161446,43.41039362291241L197.27182219332173,27.701793971825794L198.42350592502902,27.701793971825794L199.57518965673628,27.701793971825794L200.72687338844355,27.701793971825794L201.87855712015084,27.701793971825794L203.0302408518581,27.701793971825794L204.18192458356538,43.41039362291241L205.33360831527267,82.9960027300466L206.48529204697994,104.49930305994968L207.63697577868723,114.09898131422341L208.7886595103945,123.03663665841339L209.94034324210176,131.3784353934898L211.09202697380906,123.03663665841339L212.24371070551632,104.49930305994968L213.3953944372236,70.9003876430246L214.54707816893088,70.9003876430246L215.69876190063815,57.75300521702417L216.85044563234538,43.41039362291241L218.00212936405265,43.41039362291241L219.15381309575994,43.41039362291241L220.3054968274672,27.701793971825794L221.45718055917447,27.701793971825794L222.60886429088177,27.701793971825794L223.76054802258903,27.701793971825794L224.91223175429633,27.701793971825794L226.0639154860036,27.701793971825794L227.21559921771086,43.41039362291241L228.36728294941815,43.41039362291241L229.51896668112542,43.41039362291241L230.67065041283269,70.9003876430246L231.82233414453998,82.9960027300466L232.97401787624725,70.9003876430246L234.1257016079545,57.75300521702417L235.2773853396618,57.75300521702417L236.42906907136907,43.41039362291241L237.58075280307634,27.701793971825794L238.73243653478363,27.701793971825794L239.88412026649087,27.701793971825794L241.03580399819813,10.42236757720417L242.1874877299054,43.41039362291241L243.3391714616127,43.41039362291241L244.49085519331996,57.75300521702417L245.64253892502725,94.16116459141705L246.79422265673452,104.49930305994968L247.94590638844178,104.49930305994968L249.09759012014908,94.16116459141705L250.24927385185634,70.9003876430246L251.4009575835636,27.701793971825794L252.5526413152709,27.701793971825794L253.70432504697817,27.701793971825794L254.85600877868544,57.75300521702417L256.0076925103927,82.9960027300466L257.1593762421,70.9003876430246L258.3110599738073,94.16116459141705L259.4627437055145,94.16116459141705L260.6144274372218,104.49930305994968L261.7661111689291,104.49930305994968L262.91779490063635,94.16116459141705L264.0694786323436,104.49930305994968L265.2211623640509,82.9960027300466L266.3728460957582,82.9960027300466L267.5245298274654,82.9960027300466L268.6762135591727,70.9003876430246L269.82789729088,43.41039362291241L270.97958102258724,43.41039362291241L272.13126475429453,43.41039362291241L273.2829484860018,27.701793971825794L274.43463221770907,27.701793971825794L275.58631594941636,27.701793971825794L276.73799968112365,27.701793971825794L277.8896834128309,10.42236757720417L279.0413671445382,10.42236757720417L280.1930508762455,10.42236757720417L281.3447346079527,10.42236757720417L282.49641833966,10.42236757720417L283.6481020713673,27.701793971825794L284.79978580307454,27.701793971825794L285.95146953478184,43.41039362291241L287.10315326648913,43.41039362291241L288.25483699819637,70.9003876430246L289.40652072990366,82.9960027300466L290.5582044616109,82.9960027300466L291.7098881933182,94.16116459141705L292.8615719250255,104.49930305994968L294.0132556567327,114.09898131422341L295.16493938844,104.49930305994968L296.3166231201473,82.9960027300466L297.46830685185455,57.75300521702417L298.61999058356184,43.41039362291241L299.77167431526914,27.701793971825794L300.9233580469764,27.701793971825794L302.07504177868367,27.701793971825794L303.22672551039096,43.41039362291241L304.3784092420982,43.41039362291241L305.5300929738055,57.75300521702417L306.6817767055128,43.41039362291241L307.83346043722,43.41039362291241L308.9851441689273,43.41039362291241L310.1368279006346,57.75300521702417L311.28851163234185,43.41039362291241L312.44019536404915,43.41039362291241L313.59187909575644,57.75300521702417L314.7435628274637,57.75300521702417L315.89524655917097,27.701793971825794L317.04693029087827,27.701793971825794L318.1986140225855,27.701793971825794L319.3502977542928,27.701793971825794L320.5019814860001,27.701793971825794L321.6536652177073,43.41039362291241L322.8053489494146,43.41039362291241L323.95703268112186,43.41039362291241L325.1087164128291,43.41039362291241L326.2604001445364,27.701793971825794L327.4120838762437,27.701793971825794L328.5637676079509,27.701793971825794L329.7154513396582,27.701793971825794L330.8671350713655,27.701793971825794L332.01881880307275,27.701793971825794L333.17050253478004,27.701793971825794L334.32218626648734,82.9960027300466L335.4738699981946,57.75300521702417L336.62555372990187,57.75300521702417L337.77723746160916,70.9003876430246L338.9289211933164,57.75300521702417L340.0806049250237,57.75300521702417L341.232288656731,57.75300521702417L342.3839723884382,43.41039362291241L343.5356561201455,27.701793971825794L344.6873398518528,27.701793971825794L345.83902358356005,27.701793971825794L346.99070731526734,27.701793971825794L348.14239104697464,10.42236757720417L349.2940747786819,27.701793971825794L350.44575851038917,27.701793971825794L351.59744224209646,27.701793971825794L352.7491259738037,27.701793971825794L353.900809705511,27.701793971825794L355.0524934372183,27.701793971825794L356.2041771689255,27.701793971825794L357.3558609006328,27.701793971825794L358.5075446323401,27.701793971825794L359.65922836404735,27.701793971825794L360.81091209575465,10.42236757720417L361.96259582746194,27.701793971825794L363.1142795591692,27.701793971825794L364.26596329087647,27.701793971825794L365.41764702258376,43.41039362291241L366.569330754291,57.75300521702417L367.7210144859983,57.75300521702417L368.8726982177056,82.9960027300466L370.0243819494128,82.9960027300466L371.1760656811201,70.9003876430246L372.32774941282736,57.75300521702417L373.4794331445346,43.41039362291241L374.6311168762419,27.701793971825794L375.7828006079492,27.701793971825794L376.9344843396564,27.701793971825794L378.0861680713637,10.42236757720417L379.237851803071,10.42236757720417L380.38953553477825,27.701793971825794L381.54121926648554,27.701793971825794L382.69290299819284,10.42236757720417L383.8445867299001,27.701793971825794L384.99627046160737,27.701793971825794L386.14795419331466,27.701793971825794L387.2996379250219,27.701793971825794L388.4513216567292,43.41039362291241L389.6030053884365,43.41039362291241L390.7546891201437,27.701793971825794L391.906372851851,43.41039362291241L393.0580565835583,43.41039362291241L394.20974031526555,43.41039362291241L395.36142404697284,43.41039362291241L396.51310777868014,43.41039362291241L397.6647915103874,70.9003876430246L398.81647524209467,70.9003876430246L399.96815897380196,70.9003876430246L401.1198427055092,94.16116459141705L402.2715264372165,94.16116459141705L403.4232101689238,82.9960027300466L404.574893900631,57.75300521702417L405.7265776323383,57.75300521702417L406.8782613640456,70.9003876430246L408.02994509575285,57.75300521702417L409.18162882746014,43.41039362291241L410.33331255916744,57.75300521702417L411.4849962908747,57.75300521702417L412.63668002258197,57.75300521702417L413.78836375428926,70.9003876430246L414.9400474859965,43.41039362291241L416.0917312177038,57.75300521702417L417.2434149494111,57.75300521702417L418.3950986811183,43.41039362291241L419.5467824128256,43.41039362291241L420.69846614453286,27.701793971825794L421.8501498762401,43.41039362291241L423.0018336079474,43.41039362291241L424.1535173396547,43.41039362291241L425.3052010713619,27.701793971825794L426.4568848030692,27.701793971825794L427.6085685347765,27.701793971825794L428.76025226648375,27.701793971825794L429.91193599819104,27.701793971825794L431.06361972989833,27.701793971825794L432.2153034616056,27.701793971825794L433.36698719331287,27.701793971825794L434.51867092502016,27.701793971825794L435.6703546567274,27.701793971825794L436.8220383884347,27.701793971825794L437.973722120142,27.701793971825794L439.1254058518492,10.42236757720417L440.2770895835565,27.701793971825794L441.4287733152638,27.701793971825794L442.58045704697105,27.701793971825794L443.73214077867834,27.701793971825794L444.88382451038564,27.701793971825794L446.0355082420929,27.701793971825794L447.18719197380017,27.701793971825794L448.33887570550746,27.701793971825794L449.4905594372147,27.701793971825794L450.642243168922,27.701793971825794L451.7939269006293,27.701793971825794L452.9456106323365,27.701793971825794L454.0972943640438,27.701793971825794L455.2489780957511,27.701793971825794L456.40066182745835,27.701793971825794L457.55234555916564,27.701793971825794L458.70402929087294,10.42236757720417L459.8557130225802,10.42236757720417L461.00739675428747,10.42236757720417L462.15908048599476,27.701793971825794L463.310764217702,27.701793971825794L464.4624479494093,27.701793971825794L465.6141316811166,27.701793971825794L466.7658154128238,43.41039362291241L467.91749914453106,27.701793971825794L469.06918287623836,43.41039362291241L470.2208666079456,43.41039362291241L471.3725503396529,43.41039362291241L472.5242340713602,57.75300521702417L473.6759178030674,70.9003876430246L474.8276015347747,70.9003876430246L475.979285266482,70.9003876430246L477.13096899818925,43.41039362291241L478.28265272989654,43.41039362291241L479.43433646160383,27.701793971825794L480.5860201933111,27.701793971825794L481.73770392501837,27.701793971825794L482.88938765672566,10.42236757720417L484.0410713884329,27.701793971825794L485.1927551201402,27.701793971825794L486.3444388518475,27.701793971825794L487.4961225835547,27.701793971825794L488.647806315262,27.701793971825794L489.7994900469693,27.701793971825794L490.95117377867655,27.701793971825794L492.10285751038384,27.701793971825794L493.25454124209114,27.701793971825794L494.4062249737984,27.701793971825794L495.55790870550567,27.701793971825794L496.70959243721296,27.701793971825794L497.8612761689202,27.701793971825794L499.0129599006275,27.701793971825794L500.1646436323348,27.701793971825794L501.316327364042,10.42236757720417L502.4680110957493,10.42236757720417L503.6196948274566,27.701793971825794L504.77137855916385,27.701793971825794L505.92306229087114,10.42236757720417L507.07474602257844,27.701793971825794L508.2264297542857,27.701793971825794L509.37811348599297,27.701793971825794L510.52979721770026,27.701793971825794L511.6814809494075,27.701793971825794L512.8331646811148,27.701793971825794L513.9848484128221,27.701793971825794L515.1365321445294,27.701793971825794L516.2882158762366,27.701793971825794L517.4398996079439,27.701793971825794L518.5915833396512,27.701793971825794L519.7432670713584,43.41039362291241L520.8949508030656,43.41039362291241L522.0466345347729,27.701793971825794L523.1983182664802,27.701793971825794L524.3500019981875,43.41039362291241L525.5016857298948,27.701793971825794L526.6533694616021,27.701793971825794L527.8050531933093,57.75300521702417L528.9567369250166,43.41039362291241L530.1084206567239,27.701793971825794L531.2601043884312,27.701793971825794L532.4117881201385,43.41039362291241L533.5634718518457,27.701793971825794L534.7151555835529,27.701793971825794L535.8668393152602,27.701793971825794L537.0185230469675,43.41039362291241L538.1702067786748,43.41039362291241L539.3218905103821,27.701793971825794L540.4735742420894,27.701793971825794L541.6252579737966,27.701793971825794L542.7769417055039,27.701793971825794L543.9286254372112,43.41039362291241L545.0803091689185,57.75300521702417L546.2319929006258,43.41039362291241L547.383676632333,43.41039362291241L548.5353603640402,27.701793971825794L549.6870440957475,27.701793971825794L550.8387278274548,27.701793971825794L551.9904115591621,27.701793971825794L553.1420952908694,27.701793971825794L554.2937790225767,27.701793971825794L555.4454627542839,27.701793971825794L556.5971464859912,27.701793971825794L557.7488302176985,10.42236757720417L558.9005139494058,10.42236757720417L560.0521976811131,27.701793971825794L561.2038814128204,27.701793971825794L562.3555651445275,27.701793971825794L563.5072488762348,43.41039362291241L564.6589326079421,27.701793971825794L565.8106163396493,43.41039362291241L566.9623000713566,27.701793971825794L568.1139838030639,43.41039362291241L569.2656675347712,43.41039362291241L570.4173512664785,43.41039362291241L571.5690349981858,43.41039362291241L572.720718729893,57.75300521702417L573.8724024616002,57.75300521702417L575.0240861933075,57.75300521702417L576.1757699250148,57.75300521702417L577.3274536567221,70.9003876430246L578.4791373884294,70.9003876430246L579.6308211201366,70.9003876430246L580.7825048518439,57.75300521702417L581.9341885835512,43.41039362291241L583.0858723152585,43.41039362291241L584.2375560469658,43.41039362291241" fill="none"></path></g></g></g></g></g></g><g transform="translate(35, 374)" clip-path="url(#clip_1)"><clipPath id="clip_1"><rect width="585" height="25"></rect></clipPath><g><g><line x1="9.547373925036112" y1="0" x2="9.547373925036112" y2="5" style="visibility: inherit;" fill="rgb(0, 0, 0)" stroke="rgb(204, 204, 204)" stroke-width="1px"></line><line x1="67.13156051039981" y1="0" x2="67.13156051039981" y2="5" style="visibility: inherit;" fill="rgb(0, 0, 0)" stroke="rgb(204, 204, 204)" stroke-width="1px"></line><line x1="124.7157470957635" y1="0" x2="124.7157470957635" y2="5" style="visibility: inherit;" fill="rgb(0, 0, 0)" stroke="rgb(204, 204, 204)" stroke-width="1px"></line><line x1="182.2999336811272" y1="0" x2="182.2999336811272" y2="5" style="visibility: inherit;" fill="rgb(0, 0, 0)" stroke="rgb(204, 204, 204)" stroke-width="1px"></line><line x1="239.88412026649087" y1="0" x2="239.88412026649087" y2="5" style="visibility: inherit;" fill="rgb(0, 0, 0)" stroke="rgb(204, 204, 204)" stroke-width="1px"></line><line x1="297.46830685185455" y1="0" x2="297.46830685185455" y2="5" style="visibility: inherit;" fill="rgb(0, 0, 0)" stroke="rgb(204, 204, 204)" stroke-width="1px"></line><line x1="355.0524934372183" y1="0" x2="355.0524934372183" y2="5" style="visibility: inherit;" fill="rgb(0, 0, 0)" stroke="rgb(204, 204, 204)" stroke-width="1px"></line><line x1="412.63668002258197" y1="0" x2="412.63668002258197" y2="5" style="visibility: inherit;" fill="rgb(0, 0, 0)" stroke="rgb(204, 204, 204)" stroke-width="1px"></line><line x1="470.2208666079456" y1="0" x2="470.2208666079456" y2="5" style="visibility: inherit;" fill="rgb(0, 0, 0)" stroke="rgb(204, 204, 204)" stroke-width="1px"></line><line x1="527.8050531933093" y1="0" x2="527.8050531933093" y2="5" style="visibility: inherit;" fill="rgb(0, 0, 0)" stroke="rgb(204, 204, 204)" stroke-width="1px"></line><line x1="585.3892397786731" y1="0" x2="585.3892397786731" y2="5" style="visibility: inherit;" fill="rgb(0, 0, 0)" stroke="rgb(204, 204, 204)" stroke-width="1px"></line></g><g transform="translate(0, 8)"><text style="text-anchor: middle; visibility: inherit; font-family: &quot;Helvetica Neue&quot;, sans-serif; font-size: 12px; font-weight: 200;" x="9.547373925036112" y="0" dx="0em" dy="0.95em" fill="rgb(50, 49, 63)" stroke="none" stroke-width="1px">0</text><text style="text-anchor: middle; visibility: inherit; font-family: &quot;Helvetica Neue&quot;, sans-serif; font-size: 12px; font-weight: 200;" x="67.13156051039981" y="0" dx="0em" dy="0.95em" fill="rgb(50, 49, 63)" stroke="none" stroke-width="1px">50</text><text style="text-anchor: middle; visibility: inherit; font-family: &quot;Helvetica Neue&quot;, sans-serif; font-size: 12px; font-weight: 200;" x="124.7157470957635" y="0" dx="0em" dy="0.95em" fill="rgb(50, 49, 63)" stroke="none" stroke-width="1px">100</text><text style="text-anchor: middle; visibility: inherit; font-family: &quot;Helvetica Neue&quot;, sans-serif; font-size: 12px; font-weight: 200;" x="182.2999336811272" y="0" dx="0em" dy="0.95em" fill="rgb(50, 49, 63)" stroke="none" stroke-width="1px">150</text><text style="text-anchor: middle; visibility: inherit; font-family: &quot;Helvetica Neue&quot;, sans-serif; font-size: 12px; font-weight: 200;" x="239.88412026649087" y="0" dx="0em" dy="0.95em" fill="rgb(50, 49, 63)" stroke="none" stroke-width="1px">200</text><text style="text-anchor: middle; visibility: inherit; font-family: &quot;Helvetica Neue&quot;, sans-serif; font-size: 12px; font-weight: 200;" x="297.46830685185455" y="0" dx="0em" dy="0.95em" fill="rgb(50, 49, 63)" stroke="none" stroke-width="1px">250</text><text style="text-anchor: middle; visibility: inherit; font-family: &quot;Helvetica Neue&quot;, sans-serif; font-size: 12px; font-weight: 200;" x="355.0524934372183" y="0" dx="0em" dy="0.95em" fill="rgb(50, 49, 63)" stroke="none" stroke-width="1px">300</text><text style="text-anchor: middle; visibility: inherit; font-family: &quot;Helvetica Neue&quot;, sans-serif; font-size: 12px; font-weight: 200;" x="412.63668002258197" y="0" dx="0em" dy="0.95em" fill="rgb(50, 49, 63)" stroke="none" stroke-width="1px">350</text><text style="text-anchor: middle; visibility: inherit; font-family: &quot;Helvetica Neue&quot;, sans-serif; font-size: 12px; font-weight: 200;" x="470.2208666079456" y="0" dx="0em" dy="0.95em" fill="rgb(50, 49, 63)" stroke="none" stroke-width="1px">400</text><text style="text-anchor: middle; visibility: inherit; font-family: &quot;Helvetica Neue&quot;, sans-serif; font-size: 12px; font-weight: 200;" x="527.8050531933093" y="0" dx="0em" dy="0.95em" fill="rgb(50, 49, 63)" stroke="none" stroke-width="1px">450</text><text style="text-anchor: middle; visibility: hidden; font-family: &quot;Helvetica Neue&quot;, sans-serif; font-size: 12px; font-weight: 200;" x="585.3892397786731" y="0" dx="0em" dy="0.95em" fill="rgb(50, 49, 63)" stroke="none" stroke-width="1px">500</text></g><line x1="0" y1="0" x2="585.8719987869263" y2="0" fill="rgb(0, 0, 0)" stroke="rgb(204, 204, 204)" stroke-width="1px"></line></g></g></g></g></svg>